<svg width="23" height="19" viewBox="0 0 23 19" fill="none" xmlns="http://www.w3.org/2000/svg">
<g filter="url(#filter0_g_136_1384)">
<path d="M3.02952 3.80392C3.3107 3.80392 3.55673 4.75289 3.55673 5.8776C3.55673 7.03746 3.3107 7.98644 3.02952 7.98644C2.74835 7.98644 2.50232 7.03746 2.50232 5.8776C2.50232 4.75289 2.74835 3.80392 3.02952 3.80392ZM18.2834 1.69509C18.7755 1.69509 19.2324 3.76877 19.2324 6.33452C19.2324 8.90026 18.8106 10.9739 18.3186 10.9739C18.0725 10.9739 17.8968 10.6225 17.7562 10.025C17.5102 12.2041 16.983 13.7154 16.4206 13.7154C15.9637 13.7154 15.5419 12.8016 15.2959 11.3957C15.085 14.0669 14.6281 15.9649 14.0657 15.9649C13.7494 15.9649 13.4331 15.2268 13.1871 13.9966C12.9059 16.5272 12.2732 18.3197 11.5 18.3197C10.7619 18.3197 10.1293 16.5272 9.84808 13.9966C9.60205 15.2268 9.28573 15.9649 8.93425 15.9649C8.40705 15.9649 7.95013 14.0669 7.73925 11.3957C7.49322 12.8016 7.07145 13.7154 6.61454 13.7154C6.01704 13.7154 5.52498 12.2041 5.27894 10.025C5.13836 10.6225 4.92747 10.9739 4.71659 10.9739C4.22453 10.9739 3.80276 8.90026 3.80276 6.33452C3.80276 3.76877 4.22453 1.69509 4.71659 1.69509C4.99777 1.69509 5.2438 2.29259 5.41953 3.24156C5.66556 1.58965 6.12248 0.53523 6.61454 0.53523C7.17689 0.53523 7.7041 2.04656 7.95013 4.22569C8.16102 2.64406 8.51249 1.62479 8.93425 1.62479C9.49661 1.62479 9.95352 3.62818 10.1644 6.40481C10.4807 4.99892 10.9728 4.0851 11.5 4.0851C12.0272 4.0851 12.5193 4.99892 12.8356 6.40481C13.0113 3.62818 13.5034 1.62479 14.0657 1.62479C14.4524 1.62479 14.839 2.64406 15.0499 4.22569C15.2959 2.04656 15.788 0.53523 16.3855 0.53523C16.8775 0.53523 17.3344 1.58965 17.5805 3.24156C17.7562 2.29259 18.0022 1.69509 18.2834 1.69509ZM19.9705 3.80392C20.2517 3.80392 20.4977 4.75289 20.4977 5.8776C20.4977 7.03746 20.2517 7.98644 19.9705 7.98644C19.6893 7.98644 19.4433 7.03746 19.4433 5.8776C19.4433 4.75289 19.6893 3.80392 19.9705 3.80392Z" fill="#FCFCFC"/>
</g>
<defs>
<filter id="filter0_g_136_1384" x="-0.1" y="-0.1" width="23.2" height="18.5197" filterUnits="userSpaceOnUse" color-interpolation-filters="sRGB">
<feFlood flood-opacity="0" result="BackgroundImageFix"/>
<feBlend mode="normal" in="SourceGraphic" in2="BackgroundImageFix" result="shape"/>
<feTurbulence type="fractalNoise" baseFrequency="100 100" numOctaves="3" seed="9918" />
<feDisplacementMap in="shape" scale="0.20000000298023224" xChannelSelector="R" yChannelSelector="G" result="displacedImage" width="100%" height="100%" />
<feMerge result="effect1_texture_136_1384">
<feMergeNode in="displacedImage"/>
</feMerge>
</filter>
</defs>
</svg>
