<svg width="17" height="13" viewBox="0 0 17 13" fill="none" xmlns="http://www.w3.org/2000/svg">
<g filter="url(#filter0_g_197_6)">
<path d="M8.30769 3.20508C9.93269 3.20508 11.2276 4.52539 11.2276 6.125C11.2276 7.75 9.9073 9.04492 8.30769 9.04492C6.68269 9.04492 5.38777 7.72461 5.38777 6.125C5.38777 4.5 6.70808 3.20508 8.30769 3.20508ZM8.30769 4.2207C7.24129 4.24609 6.4034 5.08398 6.4034 6.125C6.42879 7.19141 7.26668 8.0293 8.30769 8.0293C9.3741 8.00391 10.212 7.16602 10.212 6.125C10.1866 5.05859 9.34871 4.2207 8.30769 4.2207ZM10.669 3.07812C10.669 3.45898 10.9737 3.76367 11.3546 3.76367C11.7354 3.76367 12.0401 3.45898 12.0401 3.07812C12.0401 2.69727 11.7354 2.41797 11.3546 2.41797C10.9737 2.41797 10.669 2.69727 10.669 3.07812ZM13.9698 3.78906C14.0206 4.72852 14.0206 7.52148 13.9698 8.46094C13.919 9.375 13.7159 10.1875 13.0557 10.8477C12.3702 11.5332 11.5831 11.7363 10.669 11.7617C9.72957 11.8379 6.91121 11.8379 5.97176 11.7617C5.05769 11.7363 4.24519 11.5078 3.58504 10.8477C2.92488 10.1875 2.69636 9.375 2.67097 8.46094C2.62019 7.52148 2.62019 4.70312 2.67097 3.76367C2.72176 2.875 2.92488 2.0625 3.58504 1.40234C4.24519 0.716797 5.05769 0.513672 5.97176 0.462891C6.91121 0.412109 9.72957 0.412109 10.669 0.462891C11.5831 0.513672 12.3702 0.716797 13.0557 1.40234C13.7159 2.0625 13.919 2.875 13.9698 3.78906ZM12.7511 9.47656C13.0557 8.74023 12.9796 6.96289 12.9796 6.125C12.9796 5.28711 13.0557 3.50977 12.7511 2.77344C12.5479 2.26562 12.1671 1.88477 11.6593 1.68164C10.9229 1.40234 9.14558 1.45312 8.30769 1.45312C7.49519 1.45312 5.71785 1.40234 4.95613 1.68164C4.47371 1.88477 4.06746 2.26562 3.88972 2.77344C3.58504 3.50977 3.66121 5.28711 3.66121 6.125C3.66121 6.96289 3.58504 8.74023 3.88972 9.47656C4.09285 9.98438 4.47371 10.3652 4.95613 10.5684C5.71785 10.8477 7.49519 10.7969 8.30769 10.7969C9.14558 10.7969 10.9229 10.8477 11.6593 10.5684C12.1671 10.3652 12.5479 9.98438 12.7511 9.47656Z" fill="#FCFCFC"/>
</g>
<defs>
<filter id="filter0_g_197_6" x="-0.1" y="-0.1" width="16.8154" height="13.2" filterUnits="userSpaceOnUse" color-interpolation-filters="sRGB">
<feFlood flood-opacity="0" result="BackgroundImageFix"/>
<feBlend mode="normal" in="SourceGraphic" in2="BackgroundImageFix" result="shape"/>
<feTurbulence type="fractalNoise" baseFrequency="100 100" numOctaves="3" seed="9918" />
<feDisplacementMap in="shape" scale="0.20000000298023224" xChannelSelector="R" yChannelSelector="G" result="displacedImage" width="100%" height="100%" />
<feMerge result="effect1_texture_197_6">
<feMergeNode in="displacedImage"/>
</feMerge>
</filter>
</defs>
</svg>
