<svg width="23" height="19" viewBox="0 0 23 19" fill="none" xmlns="http://www.w3.org/2000/svg">
<g filter="url(#filter0_g_136_1383)">
<path d="M11.5 0.53523C16.3152 0.53523 20.2165 4.43657 20.2165 9.25174C20.2165 14.0669 16.3152 17.9682 11.5 17.9682C6.68483 17.9682 2.78349 14.0669 2.78349 9.25174C2.78349 4.43657 6.68483 0.53523 11.5 0.53523ZM15.0499 13.364C15.331 13.364 15.5771 13.1531 15.5771 12.8368C15.5771 12.4853 15.4365 12.3798 15.2256 12.2392C12.7302 10.7279 9.77779 10.6928 6.89572 11.3254C6.64969 11.3606 6.4388 11.5363 6.4388 11.9229C6.4388 12.2041 6.64969 12.4501 6.96601 12.4501C7.07145 12.4501 7.24719 12.415 7.38778 12.3798C9.91838 11.8526 12.4841 11.9229 14.6632 13.2234C14.8038 13.3288 14.9093 13.364 15.0499 13.364ZM15.9988 11.0442C16.3855 11.0442 16.6666 10.7631 16.6666 10.3764C16.6666 10.0601 16.5612 9.84924 16.28 9.6735C14.5227 8.65423 12.3435 8.09188 10.059 8.09188C8.58278 8.09188 7.59866 8.26761 6.61454 8.54879C6.26307 8.65423 6.05218 8.90026 6.05218 9.28688C6.05218 9.6735 6.36851 9.95468 6.75513 9.95468C6.89572 9.95468 7.00116 9.91953 7.17689 9.88439C10.0941 9.076 13.3628 9.60321 15.5419 10.9037C15.6825 10.9739 15.788 11.0442 15.9988 11.0442ZM17.0884 8.37306C17.5102 8.37306 17.8968 8.02158 17.8968 7.56467C17.8968 7.1429 17.7211 6.93202 17.4399 6.75629C15.4716 5.63157 12.8004 5.06922 10.2347 5.06922C8.72337 5.06922 7.31748 5.24496 6.08733 5.63157C5.77101 5.70187 5.48983 5.98305 5.48983 6.47511C5.48983 6.93202 5.8413 7.28349 6.29821 7.28349C6.47395 7.28349 6.61454 7.24835 6.75513 7.2132C9.6372 6.40481 14.136 6.75629 16.6315 8.23247C16.7721 8.33791 16.8775 8.37306 17.0884 8.37306Z" fill="#FCFCFC"/>
</g>
<defs>
<filter id="filter0_g_136_1383" x="-0.138426" y="-0.138426" width="23.2769" height="18.2769" filterUnits="userSpaceOnUse" color-interpolation-filters="sRGB">
<feFlood flood-opacity="0" result="BackgroundImageFix"/>
<feBlend mode="normal" in="SourceGraphic" in2="BackgroundImageFix" result="shape"/>
<feTurbulence type="fractalNoise" baseFrequency="72.240806579589844 72.240806579589844" numOctaves="3" seed="9918" />
<feDisplacementMap in="shape" scale="0.27685186266899109" xChannelSelector="R" yChannelSelector="G" result="displacedImage" width="100%" height="100%" />
<feMerge result="effect1_texture_136_1383">
<feMergeNode in="displacedImage"/>
</feMerge>
</filter>
</defs>
</svg>
