<svg width="17" height="13" viewBox="0 0 17 13" fill="none" xmlns="http://www.w3.org/2000/svg">
<g filter="url(#filter0_g_197_10)">
<path d="M14.96 2.77344C15.2393 3.86523 15.2393 6.125 15.2393 6.125C15.2393 6.125 15.2393 8.41016 14.96 9.50195C14.8077 10.0859 14.3253 10.543 13.7413 10.7207C12.6495 11 8.30769 11 8.30769 11C8.30769 11 3.9659 11 2.89949 10.7207C2.29011 10.543 1.83308 10.0859 1.65535 9.50195C1.37605 8.41016 1.37605 6.125 1.37605 6.125C1.37605 6.125 1.37605 3.86523 1.65535 2.77344C1.83308 2.16406 2.29011 1.70703 2.89949 1.55469C3.9659 1.25 8.30769 1.25 8.30769 1.25C8.30769 1.25 12.6495 1.25 13.7159 1.55469C14.3253 1.70703 14.8077 2.16406 14.96 2.77344ZM6.88582 8.20703L10.5167 6.125L6.88582 4.06836V8.20703Z" fill="#FCFCFC"/>
</g>
<defs>
<filter id="filter0_g_197_10" x="-0.1" y="-0.1" width="16.8154" height="13.2" filterUnits="userSpaceOnUse" color-interpolation-filters="sRGB">
<feFlood flood-opacity="0" result="BackgroundImageFix"/>
<feBlend mode="normal" in="SourceGraphic" in2="BackgroundImageFix" result="shape"/>
<feTurbulence type="fractalNoise" baseFrequency="100 100" numOctaves="3" seed="9918" />
<feDisplacementMap in="shape" scale="0.20000000298023224" xChannelSelector="R" yChannelSelector="G" result="displacedImage" width="100%" height="100%" />
<feMerge result="effect1_texture_197_10">
<feMergeNode in="displacedImage"/>
</feMerge>
</filter>
</defs>
</svg>
