<svg width="40" height="40" viewBox="0 0 40 40" fill="none" xmlns="http://www.w3.org/2000/svg">
<g filter="url(#filter0_g_197_120)">
<path d="M34.0457 33.2847C23.9132 44.1258 5.90941 39.8542 1.59501 25.7566C-2.80388 11.3845 10.1621 -2.53669 24.7992 1.23934C38.9693 4.89432 44.0733 22.5561 34.0457 33.2847ZM18.7116 1.59444C5.30538 2.39601 -2.70225 17.3751 3.98429 29.0765C11.0904 41.5133 29.3505 41.467 36.2603 28.9052C43.4041 15.9175 33.3412 0.718662 18.7116 1.59387V1.59444Z" fill="#0A0A0A"/>
<path d="M31.6851 7.65218C40.0549 15.3873 38.3947 29.0101 28.5037 34.6019C16.1638 41.5781 1.13227 31.4316 3.17822 17.4771C5.14272 4.08047 21.6905 -1.58422 31.6851 7.65218ZM30.3015 10.1525C30.1564 9.08055 29.3705 8.08578 28.5166 7.45066C25.7506 5.39253 20.9008 5.49275 17.6692 6.20292C14.6739 6.86109 11.7908 8.25194 9.42719 10.1798L19.2438 10.2061V14.5743C17.8192 16.6924 16.4124 18.8786 15.2241 21.1388C13.5444 24.3343 10.3129 30.9337 14.6227 33.3692C16.9481 34.6834 20.1985 34.0166 22.642 33.3601V31.645H22.2105V32.5293C22.2105 32.8203 21.5632 32.793 21.5632 32.5829V31.6986L17.5031 32.063C17.4114 32.0362 17.3321 31.9912 17.2782 31.9103C17.1471 31.7146 16.9362 30.6154 16.9799 30.387C17.0441 30.0531 17.4157 30.1678 17.652 30.1442C19.2292 29.9856 20.712 29.9009 22.2935 29.8253C22.6285 29.8093 23.1075 29.708 23.4268 29.7133C23.512 29.7149 23.559 29.7278 23.6167 29.7932C23.7731 29.9717 23.9765 31.3561 23.9376 31.6144L23.3971 31.6455V33.039C24.2197 32.837 25.065 32.3653 25.7646 31.8808C27.6304 30.588 29.0895 28.2131 28.9012 25.8817C28.6698 23.0244 23.3486 23.153 21.3183 23.2817C20.0264 23.3637 18.7421 23.5802 17.461 23.7437C17.3812 23.6869 17.4039 23.4108 17.4076 23.3079C17.4524 22.1545 17.5986 20.8553 18.0015 19.7716C18.1051 19.4939 18.5614 18.4842 18.7971 18.3647C18.9223 18.3014 19.6143 18.2526 19.8074 18.243C23.5838 18.0586 28.7388 18.8106 29.6909 23.1659C30.3624 26.2375 29.2146 29.3633 27.2264 31.6975C27.4594 31.7071 27.6854 31.5346 27.8904 31.4199C31.1818 29.5734 34.778 25.8222 35.5704 22.0607C36.373 18.2505 34.7553 11.9791 31.5421 9.53559C31.4876 9.49432 31.4741 9.43215 31.3798 9.45573V15.941H27.1185V14.6011H20.2141V10.1525H30.3009H30.3015ZM10.4515 14.8154V16.343L10.3706 16.4234H6.48691L6.41463 16.3344L6.62122 12.9395C6.18539 13.3217 5.83477 13.9236 5.56885 14.4392C4.05205 17.379 4.17504 20.9856 5.00787 24.1103C5.68482 26.6513 7.04519 29.0605 8.99459 30.841C8.97032 28.6108 9.56528 26.3892 10.3291 24.3145C11.2094 21.9235 12.4791 19.5604 13.8487 17.4138C14.3282 16.6624 15.1346 15.7293 15.523 15.0046C15.5575 14.9398 15.5958 14.9033 15.5758 14.816H10.4515V14.8154Z" fill="#0A0A0A"/>
</g>
<defs>
<filter id="filter0_g_197_120" x="-0.0769231" y="-0.0769231" width="40.1538" height="40.1538" filterUnits="userSpaceOnUse" color-interpolation-filters="sRGB">
<feFlood flood-opacity="0" result="BackgroundImageFix"/>
<feBlend mode="normal" in="SourceGraphic" in2="BackgroundImageFix" result="shape"/>
<feTurbulence type="fractalNoise" baseFrequency="130 130" numOctaves="3" seed="9918" />
<feDisplacementMap in="shape" scale="0.15384615957736969" xChannelSelector="R" yChannelSelector="G" result="displacedImage" width="100%" height="100%" />
<feMerge result="effect1_texture_197_120">
<feMergeNode in="displacedImage"/>
</feMerge>
</filter>
</defs>
</svg>
