<svg width="601" height="174" viewBox="0 0 601 174" fill="none" xmlns="http://www.w3.org/2000/svg">
<g filter="url(#filter0_g_147_561)">
<rect width="592.816" height="166" transform="translate(4 4)" fill="#F5080C"/>
<path d="M69.6342 87.75L80.7102 61.62L81.8802 61.932L81.3342 71.214L81.6462 71.292C86.7162 64.662 89.6022 61.776 95.5302 61.776C100.444 61.776 107.308 63.726 112.846 67.626L118.852 61.776L119.71 62.4L114.25 68.25C98.8062 84.786 91.3962 95.238 84.8442 111.54L82.6602 117H69.7122L69.4002 116.454C77.5902 100.23 86.2482 90.246 106.216 74.802C102.55 74.256 92.0202 73.398 87.2622 73.398C82.1922 73.398 80.0082 74.88 77.4342 78.546L70.7262 88.062L69.6342 87.75ZM107.863 106.47C107.863 100.464 110.827 94.38 115.585 94.38C118.315 94.38 120.499 96.252 120.499 99.996C120.499 105.534 116.053 110.136 112.231 110.136C111.529 110.136 110.593 109.746 110.359 109.434C111.061 113.022 114.415 115.674 118.003 115.674C119.953 115.674 122.215 114.894 123.931 113.178C128.767 108.342 132.355 97.968 132.355 90.168C132.355 85.8 130.483 83.85 127.831 83.85C125.101 83.85 121.279 86.19 118.393 90.48L115.897 89.466L129.079 62.4H130.639C134.227 64.974 142.183 67.47 146.785 67.47C151.387 67.47 153.805 65.208 156.067 61.464H157.003C154.429 71.214 149.905 75.27 139.063 75.27H124.711L118.627 87.282L118.861 87.36C122.215 83.694 125.647 81.744 129.859 81.744C137.581 81.744 144.367 89.154 144.367 97.968C144.367 108.576 133.759 117.936 120.889 117.936C113.089 117.936 107.863 112.866 107.863 106.47ZM160.933 62.4H204.925L197.437 86.346L196.345 86.502L195.565 76.284C194.785 65.754 192.991 63.96 185.971 63.96H182.617L173.647 88.92H173.803C178.171 88.92 180.277 86.424 186.673 78L189.793 73.866H190.807L179.497 105.612H178.405L178.327 101.478C178.171 93.288 177.625 90.558 173.257 90.558H173.101L165.613 111.462C164.521 114.582 165.145 115.44 167.407 115.44H169.201C175.519 115.44 178.639 113.88 185.581 104.442L194.317 92.508L195.331 92.664L185.737 117H141.511V115.908L145.723 115.44C149.545 115.05 150.637 114.114 152.587 108.654L166.159 70.746C168.109 65.286 167.719 64.428 164.209 63.96L160.933 63.492V62.4ZM222.627 94.38L223.641 94.146L225.045 101.946C226.683 111.15 232.299 116.22 239.943 116.22C245.793 116.22 248.991 112.944 248.991 108.186C248.991 104.676 246.963 102.258 242.673 98.904L237.525 94.926C231.597 90.402 228.009 86.034 228.009 80.34C228.009 69.966 234.951 61.62 245.949 61.62C252.111 61.62 255.621 64.506 258.039 69.264L266.151 62.088H267.243L261.003 82.68L259.911 82.914L258.663 76.128C257.025 67.158 252.033 63.18 245.949 63.18C241.191 63.18 237.837 66.3 237.837 70.746C237.837 74.178 239.787 76.674 244.077 79.95L249.147 83.85C254.997 88.296 258.663 93.366 258.663 98.904C258.663 109.2 251.253 117.78 239.943 117.78C233.469 117.78 228.477 115.05 225.981 109.902L216.543 117.312H215.451L222.627 94.38ZM274.81 62.4H318.802L311.314 86.346L310.222 86.502L309.442 76.284C308.662 65.754 306.868 63.96 299.848 63.96H296.494L287.524 88.92H287.68C292.048 88.92 294.154 86.424 300.55 78L303.67 73.866H304.684L293.374 105.612H292.282L292.204 101.478C292.048 93.288 291.502 90.558 287.134 90.558H286.978L279.49 111.462C278.398 114.582 279.022 115.44 281.284 115.44H283.078C289.396 115.44 292.516 113.88 299.458 104.442L308.194 92.508L309.208 92.664L299.614 117H255.388V115.908L259.6 115.44C263.422 115.05 264.514 114.114 266.464 108.654L280.036 70.746C281.986 65.286 281.596 64.428 278.086 63.96L274.81 63.492V62.4ZM314.643 94.38L315.657 94.146L317.061 101.946C318.699 111.15 324.315 116.22 331.959 116.22C337.809 116.22 341.007 112.944 341.007 108.186C341.007 104.676 338.979 102.258 334.689 98.904L329.541 94.926C323.613 90.402 320.025 86.034 320.025 80.34C320.025 69.966 326.967 61.62 337.965 61.62C344.127 61.62 347.637 64.506 350.055 69.264L358.167 62.088H359.259L353.019 82.68L351.927 82.914L350.679 76.128C349.041 67.158 344.049 63.18 337.965 63.18C333.207 63.18 329.853 66.3 329.853 70.746C329.853 74.178 331.803 76.674 336.093 79.95L341.163 83.85C347.013 88.296 350.679 93.366 350.679 98.904C350.679 109.2 343.269 117.78 331.959 117.78C325.485 117.78 320.493 115.05 317.997 109.902L308.559 117.312H307.467L314.643 94.38ZM356.842 94.38L357.856 94.146L359.26 101.946C360.898 111.15 366.514 116.22 374.158 116.22C380.008 116.22 383.206 112.944 383.206 108.186C383.206 104.676 381.178 102.258 376.888 98.904L371.74 94.926C365.812 90.402 362.224 86.034 362.224 80.34C362.224 69.966 369.166 61.62 380.164 61.62C386.326 61.62 389.836 64.506 392.254 69.264L400.366 62.088H401.458L395.218 82.68L394.126 82.914L392.878 76.128C391.24 67.158 386.248 63.18 380.164 63.18C375.406 63.18 372.052 66.3 372.052 70.746C372.052 74.178 374.002 76.674 378.292 79.95L383.362 83.85C389.212 88.296 392.878 93.366 392.878 98.904C392.878 109.2 385.468 117.78 374.158 117.78C367.684 117.78 362.692 115.05 360.196 109.902L350.758 117.312H349.666L356.842 94.38ZM389.603 117V115.908L393.893 115.44C397.715 115.05 398.729 114.114 400.679 108.654L414.251 70.746C416.123 65.286 415.811 64.428 412.301 63.96L409.025 63.492V62.4H439.601V63.492L434.999 63.96C431.333 64.35 430.241 65.286 428.291 70.746L414.719 108.654C412.769 114.114 413.081 114.972 416.591 115.44L420.179 115.908V117H389.603ZM474.407 66.612C478.697 70.902 480.569 76.128 480.569 82.446C480.569 91.962 477.215 100.23 468.791 108.654C462.863 114.582 455.687 117.624 448.823 117.624C445.859 117.624 442.037 116.22 438.605 112.788C434.315 108.498 432.443 103.272 432.443 96.954C432.443 87.438 435.797 79.17 444.221 70.746C450.149 64.818 457.325 61.776 464.189 61.776C467.153 61.776 470.975 63.18 474.407 66.612ZM464.735 89.7C468.479 79.17 469.727 72.93 469.727 69.576C469.727 67.314 469.103 65.754 468.089 64.74C467.153 63.804 465.827 63.336 464.501 63.336C462.473 63.336 460.757 63.96 458.885 65.832C456.545 68.172 454.517 72.072 448.277 89.7C444.533 100.23 443.285 106.47 443.285 109.824C443.285 112.086 443.909 113.646 444.923 114.66C445.859 115.596 447.185 116.064 448.511 116.064C450.539 116.064 452.255 115.44 454.127 113.568C456.467 111.228 458.495 107.328 464.735 89.7ZM525.574 62.4H548.272V63.492L544.294 64.116C538.912 64.974 537.196 67.704 533.764 77.298L519.178 118.248H517.618C515.98 113.49 513.952 107.562 511.924 102.648L504.514 84.162C503.032 80.34 501.706 76.518 500.146 72.072L489.304 102.102C485.872 111.696 486.574 114.582 491.41 115.284L495.778 115.908V117H473.236V115.908L477.058 115.284C482.518 114.426 483.922 111.696 487.432 102.102L497.572 74.178C500.38 66.534 499.366 64.428 495.856 63.96L492.58 63.492V62.4H513.25L521.362 81.588C522.844 85.098 524.56 90.09 525.964 93.99L531.97 77.298C535.48 67.626 534.778 64.818 529.864 64.116L525.574 63.492V62.4Z" fill="white"/>
</g>
<defs>
<filter id="filter0_g_147_561" x="0" y="0" width="600.816" height="174" filterUnits="userSpaceOnUse" color-interpolation-filters="sRGB">
<feFlood flood-opacity="0" result="BackgroundImageFix"/>
<feBlend mode="normal" in="SourceGraphic" in2="BackgroundImageFix" result="shape"/>
<feTurbulence type="fractalNoise" baseFrequency="1 1" numOctaves="3" seed="7057" />
<feDisplacementMap in="shape" scale="8" xChannelSelector="R" yChannelSelector="G" result="displacedImage" width="100%" height="100%" />
<feMerge result="effect1_texture_147_561">
<feMergeNode in="displacedImage"/>
</feMerge>
</filter>
</defs>
</svg>
